<svg width="88" height="88" viewBox="0 0 88 88" fill="none" xmlns="http://www.w3.org/2000/svg">
<circle cx="44.375" cy="44.125" r="43.625" fill="white"/>
<path d="M18.3678 38.834H16.375V48.8261H18.3678V38.834Z" fill="black"/>
<path d="M23.8976 41.2651C22.8093 41.2651 22.0632 41.805 21.6871 42.7262H21.6479V41.4034H19.7869V48.8261H21.7138V44.5679C21.7138 43.6055 22.2616 42.9406 23.1255 42.9406C23.9894 42.9406 24.4261 43.4945 24.4261 44.4639V48.8261H26.353V44.0413C26.353 42.3037 25.4684 41.2651 23.8976 41.2651Z" fill="black"/>
<path d="M58.7482 45.6546C58.7482 46.638 58.2137 47.2819 57.3558 47.2819C56.4978 47.2819 56.0359 46.756 56.0359 45.7656V41.4034H54.109V46.1882C54.109 47.9195 55.1254 48.9651 56.6562 48.9651C57.7252 48.9651 58.4247 48.4245 58.7742 47.49H58.8141V48.8261H60.6751V41.4034H58.7482V45.6546Z" fill="black"/>
<path d="M70.0587 41.2651C69.023 41.2651 68.1784 41.8532 67.8616 42.7884H67.8216C67.584 41.819 66.8718 41.2651 65.8488 41.2651C64.885 41.2651 64.1262 41.8532 63.8294 42.7465H63.7895V41.4034H61.9291V48.8261H63.856V44.3465C63.856 43.5154 64.3506 42.9336 65.0834 42.9336C65.8162 42.9336 66.2249 43.4044 66.2249 44.2006V48.8261H68.0792V44.3186C68.0792 43.4945 68.5611 42.9336 69.2933 42.9336C70.0254 42.9336 70.4481 43.4044 70.4481 44.2634V48.8261H72.375V43.7578C72.375 42.2618 71.4445 41.2651 70.0587 41.2651Z" fill="black"/>
<path d="M51.8913 38.4952C51.4386 38.4952 51.0659 38.7732 50.9241 39.1748C48.9693 37.9847 45.7551 36.4957 41.7635 36.634C41.2543 36.6514 33.6972 36.9888 32.565 40.7378C32.4831 41.0081 32.4512 41.2435 32.4365 41.4034V42.6983H32.4032C32.0112 41.8001 31.1859 41.2847 30.2194 41.2854C28.2133 41.1897 27.0731 43.3569 27.3454 45.7175C27.4552 46.7546 27.772 47.518 28.3517 48.0935C29.4001 49.2333 31.8355 48.9525 32.3706 47.4761H32.4099V48.7779C32.5836 50.3431 29.9219 50.7796 29.4207 49.3527H27.5331C27.6955 50.8976 29.3488 51.6575 30.8065 51.6239C32.9251 51.6239 34.3368 50.4953 34.3368 48.7227C34.3308 48.692 34.3321 42.0459 34.3441 42.0208C38.6259 37.7486 45.5694 36.6333 50.8795 39.3445C50.6686 40.3146 51.8946 40.9795 52.5781 40.3251C53.2784 39.7195 52.8204 38.4554 51.8913 38.4952ZM30.8404 47.2477C28.7484 47.3252 28.8663 43.0957 30.5868 42.9266C32.9916 42.5062 32.9763 47.4195 30.8404 47.2477Z" fill="black"/>
<path d="M38.7524 41.2442C36.6604 41.2442 35.3405 42.7814 35.3405 45.1497C35.3405 47.518 36.6477 48.9854 38.8249 48.9854C40.5741 48.9854 41.8407 48.009 42.0524 46.5549H40.2839C40.1055 47.1227 39.5644 47.4901 38.8582 47.4901C37.8751 47.4901 37.2348 46.763 37.2348 45.7035V45.5785H42.1116V44.9625C42.1116 42.7053 40.8117 41.2442 38.7524 41.2442ZM37.2548 44.3396C37.3207 43.4114 37.9277 42.7395 38.7723 42.7395C39.617 42.7395 40.2173 43.3904 40.2573 44.3396H37.2548Z" fill="black"/>
<path d="M47.2194 41.2651C46.1305 41.2651 45.3844 41.805 45.0083 42.7262H44.969V41.4034H43.108V48.8261H45.0349V44.5679C45.0349 43.6055 45.5827 42.9406 46.4473 42.9406C47.3119 42.9406 47.7472 43.4945 47.7472 44.4639V48.8261H49.6741V44.0413C49.6741 42.3037 48.7896 41.2651 47.2194 41.2651Z" fill="black"/>
<path d="M52.855 41.4034H50.9281V48.8261H52.855V41.4034Z" fill="black"/>
</svg>
